<?xml version="1.0" encoding="UTF-8"?>
<svg width="98" height="113" viewBox="0 0 4602 4775" version="1.1" xmlns="http://www.w3.org/2000/svg" xmlns:xlink="http://www.w3.org/1999/xlink">
    <!-- Generator: Sketch 53.2 (72643) - https://sketchapp.com -->
    <title>gopher-go-trigger-3</title>
    <desc>Created with Sketch.</desc>
    <g id="Page-1" stroke="none" stroke-width="1" fill="none" fill-rule="evenodd">
        <g id="gopher-go-trigger">
            <g id="background">
                <rect id="canvas_background" x="0" y="0" width="98" height="113"></rect>
            </g>
            <g id="Layer-1" transform="translate(125.000000, 211.000000)" fill-rule="nonzero">
                <g id="svg_1">
                    <g id="svg_10">
                        <path d="M1443.07875,4486.06721 C1458.57087,4383.23311 1461.66929,4290.68242 1450.30841,4264.50646 C1444.11156,4249.54878 1435.8491,4240.20022 1432.75068,4243.00479 C1429.65226,4245.80935 1414.16015,4278.5293 1399.70084,4314.98866 C1384.20873,4352.38288 1367.68381,4383.23311 1361.48696,4383.23311 C1347.02766,4386.03767 1289.19044,4286.00814 1263.37025,4214.95912 C1250.97656,4182.23918 1236.51726,4153.25866 1230.32042,4150.4541 C1214.8283,4141.10554 1201.40181,4165.41178 1201.40181,4207.48028 C1200.369,4228.0471 1197.27058,4260.76704 1193.13935,4281.33386 L1185.90969,4317.79322 L1132.20371,4273.85502 C1063.00561,4216.82883 992.774698,4132.69184 953.528014,4056.96855 C935.970287,4024.24861 913.248523,3993.39838 902.920448,3987.78925 C878.133069,3976.57098 853.345689,3918.60994 845.08323,3855.03977 C832.68954,3754.07538 836.82077,3755.94509 764.524247,3822.31983 C665.37473,3913.00081 560.028368,3948.52532 440.222702,3931.69792 C345.204415,3917.67509 294.596849,3883.08544 254.317358,3802.68787 C231.595594,3757.8148 228.497171,3742.85712 232.628401,3669.93839 C236.759631,3597.95452 241.923668,3578.32256 273.9407,3518.49181 C295.629657,3481.09759 333.843533,3429.68054 361.729335,3405.37429 L410.271286,3360.50123 L364.827757,3325.91158 C228.497171,3225.88205 132.446076,3096.87199 77.7072815,2940.75113 C44.6574425,2849.1353 34.3293675,2779.95599 34.3293675,2664.03391 C34.3293675,2508.84791 66.3463995,2380.77271 139.675729,2241.47925 C163.430301,2195.67133 168.594338,2175.10451 164.463108,2147.9937 C160.331878,2129.29659 150.003803,2027.39735 140.708536,1921.75868 C128.314846,1771.24695 123.150809,1545.94678 120.052387,882.199406 L114.88835,33.3506466 L720.113527,33.3506466 L1325.3387,33.3506466 L1325.3387,712.055712 L1325.3387,1389.82592 L1281.96079,1385.15164 C1257.17341,1382.34708 1186.9425,1375.80309 1123.94125,1370.19396 C845.08323,1344.95286 469.141311,1288.86153 263.612625,1240.24905 L187.184872,1222.48679 L194.414524,1401.04419 C206.808214,1735.72244 229.529978,2090.03266 239.858053,2090.03266 C242.956475,2090.03266 262.579817,2069.46584 282.203159,2046.09445 C329.712303,1989.06827 436.091472,1910.54041 506.32238,1879.69018 C667.440345,1811.44573 913.248523,1802.09718 1144.5974,1857.25365 C1517.44089,1945.13006 1778.74118,2189.12734 1854.13613,2520.06617 C1883.05474,2643.46709 1875.82508,2816.41535 1837.61121,2934.20714 C1743.62573,3222.14262 1524.67054,3415.6577 1214.8283,3484.83701 C1102.25229,3509.14325 899.822025,3511.01296 773.819514,3488.57643 C728.375985,3480.16273 690.162109,3475.48846 688.096494,3477.35817 C680.866842,3483.90215 811.000583,3583.93169 879.165876,3626.00018 C984.512238,3689.57035 1193.13935,3748.46625 1518.4737,3805.49243 C1778.74118,3851.30035 1885.12035,3864.38833 2077.22254,3874.67174 C2446.96762,3894.3037 2831.17199,3845.69122 3201.94988,3731.63885 C3432.26594,3660.58984 3498.36562,3630.67446 3651.22112,3527.84036 C3719.38642,3482.9673 3736.94414,3466.1399 3706.99273,3476.42331 C3658.45078,3493.25071 3476.67666,3501.66441 3379.59276,3492.31585 C3071.81613,3461.46562 2839.43445,3318.43274 2704.13667,3076.30517 C2575.03574,2844.46102 2567.80609,2558.39525 2686.57895,2320.94196 C2821.87673,2051.70359 3095.57071,1875.0159 3459.11893,1823.59885 C3733.84572,1784.33493 3964.16179,1832.94741 4120.11571,1964.76203 C4153.16555,1992.80769 4181.05136,2015.24422 4182.08416,2015.24422 C4190.34662,2015.24422 4221.33085,1118.71784 4213.06839,1111.23899 C4212.03558,1109.36928 4185.18258,1119.65269 4154.19836,1132.74067 C4076.7378,1167.33032 3891.86526,1226.22622 3762.76433,1258.0113 C3567.56372,1305.68893 3192.65461,1370.19396 3107.96439,1370.19396 L3081.1114,1370.19396 L3081.1114,701.772302 L3081.1114,33.3506466 L3684.27096,33.3506466 L4286.39772,33.3506466 L4293.62737,90.3768296 C4311.1851,244.627981 4293.62737,1523.51025 4267.80718,1922.69353 L4256.4463,2104.99035 L4288.46333,2152.66798 C4378.31758,2285.41745 4432.02357,2442.47317 4440.28603,2604.20317 C4454.74533,2861.28842 4366.9567,3087.52344 4187.2482,3250.18829 C4143.87029,3289.45222 4098.42676,3327.78129 4085.00026,3335.26014 L4061.24569,3350.21782 L4107.72202,3423.13655 C4169.69047,3520.36152 4196.54347,3593.28024 4196.54347,3664.32926 C4195.51066,3758.74966 4145.9359,3836.34266 4057.11446,3878.41116 C4012.70374,3899.91284 3900.12772,3905.52197 3819.56874,3891.49914 L3778.25644,3884.02029 L3752.43625,3928.89335 C3737.97695,3953.1996 3698.73027,3999.94237 3665.68043,4032.66231 C3610.94163,4085.94907 3586.15425,4099.9719 3440.5284,4165.41178 C3350.67415,4205.61057 3220.54041,4255.15791 3151.34231,4276.65958 C2986.09311,4325.27207 2585.36382,4427.17131 2555.4124,4427.17131 C2533.72344,4427.17131 2532.69063,4423.43189 2534.75625,4375.75426 C2537.85467,4314.98866 2530.62502,4305.6401 2499.6408,4330.8812 C2462.45973,4361.73143 2397.39286,4387.90738 2300.30895,4409.40906 C2249.70139,4420.62733 2187.73294,4438.38958 2162.94556,4447.73813 L2117.50203,4464.56553 L2124.73168,4403.79993 L2131.96134,4342.09947 L2103.04273,4348.64346 C2044.1727,4361.73143 1864.4642,4420.62733 1791.13487,4451.47756 C1748.78976,4469.23981 1712.6415,4482.32779 1710.57589,4480.45808 C1708.51027,4478.58836 1718.83835,4454.28212 1733.29765,4426.23646 C1758.08503,4378.55883 1766.34749,4343.03432 1752.92099,4343.03432 C1739.4945,4343.03432 1643.4434,4399.12565 1549.45792,4461.76097 C1494.71913,4499.15518 1446.17718,4530.00542 1443.07875,4530.00542 C1438.94752,4530.00542 1438.94752,4510.37345 1443.07875,4486.06721 L1443.07875,4486.06721 Z M608.570319,3841.95179 C654.013848,3823.25469 753.163365,3736.31313 780.016359,3693.30978 L796.541279,3665.26411 L730.441601,3616.65163 L665.37473,3567.10429 L655.046655,3602.6288 C649.882618,3621.32591 641.620158,3653.11099 638.521735,3671.8081 C630.259275,3712.00689 613.734356,3728.83428 592.045399,3716.68116 C580.684517,3710.13718 579.651709,3698.91891 587.914169,3656.85041 C594.111014,3627.86989 597.209436,3604.49851 595.143821,3604.49851 C593.078206,3604.49851 563.126789,3617.58648 529.044143,3633.47903 C493.928689,3649.37157 459.846043,3659.65498 451.583583,3656.85041 C419.566551,3645.63215 440.222701,3622.26076 507.355186,3591.41053 C545.569062,3572.71342 586.881361,3551.21175 599.275051,3541.86319 L621.996815,3525.03579 L575.520479,3473.61874 C548.667485,3445.57308 516.650453,3416.59256 504.256764,3410.98343 C482.567807,3399.76516 476.370962,3402.56973 434.025856,3439.02909 C375.15583,3491.381 339.007569,3548.40718 317.318612,3622.26076 C284.268773,3739.1177 325.581072,3827.92896 425.763396,3857.84434 C466.042887,3869.99746 563.126789,3860.6489 608.570318,3841.9518 L608.570319,3841.95179 Z M4032.32708,3807.36214 C4077.77061,3780.25133 4109.78764,3736.31313 4117.01729,3690.50521 C4128.37817,3626.93504 4089.13149,3522.23123 4018.90058,3429.68054 L3988.94917,3389.48175 L3940.40721,3411.91828 C3886.70123,3437.15938 3816.47032,3496.99013 3828.86401,3508.20839 C3832.99524,3512.88267 3879.47157,3517.55695 3931.11195,3519.42666 C4024.06462,3522.23123 4044.72077,3529.71007 4034.39269,3554.95117 C4030.26146,3563.36487 4005.47408,3567.10429 3943.50564,3567.10429 L3857.78262,3567.10429 L3876.37315,3602.6288 C3920.78387,3686.76579 3929.04633,3743.79197 3894.96368,3733.50856 C3880.50438,3728.83428 3877.40596,3724.16001 3834.02804,3635.34874 C3784.45328,3532.51464 3781.35486,3531.57978 3693.56623,3588.60597 C3652.25393,3615.71677 3619.20409,3641.89273 3619.20409,3648.43672 C3618.17128,3668.06868 3758.6331,3790.53475 3805.10943,3810.16671 C3872.24192,3837.27752 3984.81793,3836.34266 4032.32708,3807.36214 L4032.32708,3807.36214 Z M1239.61568,3402.56973 C1574.2453,3315.62817 1790.10206,3038.91095 1790.10206,2696.75385 C1790.10206,2245.21867 1421.3898,1918.01926 886.395528,1896.51758 C666.407537,1887.16902 522.847299,1930.17238 395.81198,2043.28989 C114.888348,2294.76601 32.2637515,2700.49328 197.512946,3019.27899 C310.08896,3235.2306 531.109759,3381.06805 800.672508,3416.59256 C841.984807,3422.20169 887.428335,3428.74568 901.88764,3430.61539 C966.954511,3440.8988 1151.82705,3425.94111 1239.61568,3402.56973 L1239.61568,3402.56973 Z M3710.09115,3402.56973 C3988.94917,3350.21782 4198.60908,3195.03182 4299.82422,2966.92708 C4349.39897,2853.80957 4364.89109,2759.38917 4358.69424,2619.16085 C4347.33336,2381.70756 4269.8728,2215.30329 4090.1643,2046.09445 C3958.99775,1922.69353 3860.88104,1889.03874 3628.49936,1889.03874 C3305.23062,1889.03874 3041.86472,1995.61226 2868.35306,2195.67133 C2626.67612,2475.19311 2622.54489,2878.11581 2858.02499,3162.31187 C2971.63381,3298.80077 3146.17827,3388.5469 3354.80538,3417.52741 C3434.33156,3427.81082 3611.97444,3421.26684 3710.09115,3402.56973 L3710.09115,3402.56973 Z" id="svg_2" stroke="#000000" fill="#072D83" transform="translate(2238.076315, 2281.678031) rotate(179.133179) translate(-2238.076315, -2281.678031) "></path>
                        <path d="M2970.53758,2417.56372 C2871.53758,2393.56372 2795.53758,2310.56372 2795.53758,2227.56372 C2795.53758,2162.56372 2841.53758,2085.56372 2900.53758,2050.56372 C2940.53758,2027.56372 2954.53758,2024.56372 3010.53758,2028.56372 C3065.53758,2031.56372 3079.53758,2036.56372 3106.53758,2061.56372 C3214.53758,2163.56372 3209.53758,2346.56372 3095.53758,2404.56372 C3050.53758,2427.56372 3022.53758,2429.56372 2970.53758,2417.56372 Z" id="svg_3" fill="#108134" transform="translate(2989.966621, 2225.936229) rotate(179.133179) translate(-2989.966621, -2225.936229) "></path>
                        <path d="M1437.97901,2370.53671 C1307.97901,2323.53671 1250.97901,2195.53671 1314.97901,2097.53671 C1384.97901,1991.53671 1569.97901,1990.53671 1638.97901,2095.53671 C1747.97901,2258.53671 1617.97901,2436.53671 1437.97901,2370.53671 Z" id="svg_4" fill="#108134" transform="translate(1483.750445, 2201.027711) rotate(179.133179) translate(-1483.750445, -2201.027711) "></path>
                        <path d="M2142.06279,3294.49636 C2032.06279,3271.49636 1959.06279,3212.49636 1959.06279,3148.49636 C1959.06279,3119.49636 1950.06279,3104.49636 1910.06279,3065.49636 C1883.06279,3039.49636 1848.06279,2993.49636 1833.06279,2963.49636 C1809.06279,2917.49636 1805.06279,2897.49636 1804.06279,2827.49636 C1804.06279,2760.49636 1808.06279,2741.49636 1825.06279,2717.49636 C1856.06279,2675.49636 1917.06279,2644.49636 1970.06279,2644.49636 L2015.06279,2644.49636 L2026.06279,2569.49636 C2046.06279,2429.49636 2104.06279,2379.49636 2244.06279,2380.49636 C2409.06279,2380.49636 2452.06279,2426.49636 2474.06279,2617.49636 L2480.06279,2674.49636 L2517.06279,2674.49636 C2569.06279,2675.49636 2632.06279,2706.49636 2660.06279,2745.49636 C2694.06279,2793.49636 2698.06279,2891.49636 2670.06279,2957.49636 C2646.06279,3012.49636 2574.06279,3093.49636 2524.06279,3120.49636 C2501.06279,3132.49636 2489.06279,3146.49636 2489.06279,3160.49636 C2489.06279,3201.49636 2446.06279,3248.49636 2387.06279,3272.49636 C2322.06279,3297.49636 2206.06279,3308.49636 2142.06279,3294.49636 Z M2487.06279,3050.49636 C2584.06279,2999.49636 2642.06279,2861.49636 2596.06279,2791.49636 C2571.06279,2753.49636 2537.06279,2748.49636 2434.06279,2769.49636 C2298.06279,2797.49636 2213.06279,2794.49636 2101.06279,2756.49636 C2001.06279,2722.49636 1964.06279,2717.49636 1926.06279,2735.49636 C1850.06279,2769.49636 1871.06279,2916.49636 1964.06279,3006.49636 C2002.06279,3043.49636 2003.06279,3043.49636 2024.06279,3025.49636 C2035.06279,3015.49636 2054.06279,3001.49636 2067.06279,2995.49636 C2079.06279,2988.49636 2088.06279,2980.49636 2085.06279,2976.49636 C2083.06279,2972.49636 2091.06279,2968.49636 2102.06279,2967.49636 C2114.06279,2967.49636 2145.06279,2961.49636 2171.06279,2954.49636 C2258.06279,2933.49636 2357.06279,2964.49636 2423.06279,3033.49636 C2458.06279,3069.49636 2453.06279,3068.49636 2487.06279,3050.49636 Z M2390.06279,2698.49636 C2411.06279,2685.49636 2388.06279,2516.49636 2360.06279,2485.49636 C2351.06279,2474.49636 2330.06279,2463.49636 2313.06279,2459.49636 L2282.06279,2453.49636 L2275.06279,2555.49636 C2271.06279,2611.49636 2265.06279,2671.49636 2262.06279,2687.49636 L2256.06279,2717.49636 L2318.06279,2711.49636 C2353.06279,2707.49636 2385.06279,2702.49636 2390.06279,2698.49636 Z M2213.06279,2687.49636 C2217.06279,2678.49636 2222.06279,2622.49636 2226.06279,2562.49636 C2232.06279,2455.49636 2232.06279,2454.49636 2210.06279,2454.49636 C2175.06279,2454.49636 2134.06279,2480.49636 2120.06279,2511.49636 C2112.06279,2526.49636 2104.06279,2568.49636 2102.06279,2604.49636 L2097.06279,2670.49636 L2145.06279,2686.49636 C2208.06279,2707.49636 2206.06279,2707.49636 2213.06279,2687.49636 Z" id="svg_5" fill="#072D83" transform="translate(2246.335799, 2840.562528) rotate(179.133179) translate(-2246.335799, -2840.562528) "></path>
                        <path d="M2246.78818,3595 C2231.75508,3595 2219.63074,3609.63834 2219.63074,3627.67487 L2219.63074,3928.9699 L2055.27245,4015.36227 C2041.51703,4022.61609 2035.26456,4041.89426 2041.29955,4058.42775 C2045.75783,4070.68083 2055.70741,4078 2066.17349,4078 C2069.81623,4078 2073.54053,4077.11778 2077.07453,4075.22264 L2257.1999,3980.53085 C2257.33582,3980.4655 2257.44456,3980.40015 2257.5533,3980.3348 L2257.66204,3980.26945 C2258.0698,3980.0734 2258.28728,3979.61595 2258.66787,3979.45258 C2261.49507,3977.75348 2264.13198,3975.76032 2266.25238,3973.08098 C2267.17666,3971.97003 2267.69316,3970.53234 2268.39997,3969.25802 C2269.70483,3967.16683 2271.14561,3965.10831 2271.93397,3962.59234 C2272.5864,3960.63185 2272.64077,3958.50798 2272.96698,3956.41679 C2273.32038,3954.3256 2274,3952.46313 2274,3950.33926 L2274,3627.6422 C2274,3609.63834 2261.82128,3595 2246.78818,3595 L2246.78818,3595 Z M2672,3650.43603 C2672,3525.37076 2587.68255,3424 2483.59598,3424 C2430.96886,3424 2383.50126,3449.97911 2349.44841,3491.78721 C2316.94343,3481.37598 2282.94489,3475.30548 2247.69721,3475.30548 C2211.47194,3475.30548 2176.55012,3481.66971 2143.23047,3492.63577 C2109.04185,3450.37076 2061.32985,3424 2008.40402,3424 C1904.3446,3424 1820,3525.37076 1820,3650.43603 C1820,3710.65144 1839.71481,3765.22063 1871.62238,3805.78851 C1859.59254,3851.15405 1853.02094,3899.45692 1853.02094,3949.65274 C1853.02094,4211.63055 2029.72099,4424 2247.69721,4424 C2465.67343,4424 2642.37348,4211.63055 2642.37348,3949.65274 C2642.37348,3898.24935 2635.34024,3848.90209 2622.7673,3802.5248 C2653.28994,3762.34856 2672,3709.08486 2672,3650.43603 Z M2248.01357,4326 C2075.38661,4326 1935,4157.32406 1935,3950.0163 C1935,3742.67594 2075.38661,3574 2248.01357,3574 C2420.64052,3574 2561,3742.64334 2561,3950.0163 C2561,4157.38926 2420.58625,4326 2248.01357,4326 Z" id="svg_11" stroke-opacity="0" stroke="#000000" fill="#108134"></path>
                    </g>
                </g>
            </g>
        </g>
    </g>
</svg>